# 3ds Max Wavefront OBJ Exporter v0.97b - (c)2007 guruware
# File Created: 04.11.2019 14:29:11

mtllib Turret.mtl

#
# object Box003
#

v  -1.6218 32.1768 4.0968
v  -1.6218 32.2507 -6.4125
v  1.8555 32.2507 -6.4125
v  1.8555 32.1768 4.0968
v  -1.3193 36.9970 1.4172
v  1.5428 36.9970 1.4172
v  1.5428 37.0710 -6.4125
v  -1.3193 37.0710 -6.4125
v  1.8555 34.0544 4.0968
v  -1.6218 34.0544 4.0968
v  1.8555 34.1284 -6.4125
v  1.8555 30.5763 -12.6504
v  -1.6218 30.5763 -12.6504
v  -1.6218 33.6069 -11.8084
v  1.8555 33.6069 -11.8084
v  -1.6218 34.1284 -6.4125
v  1.5428 36.6794 -10.5387
v  -1.3193 36.6794 -10.5387
v  1.8555 35.3003 4.0968
v  -1.6218 35.3003 4.0968
v  1.8555 35.3743 -6.4125
v  -1.6218 35.6178 -11.2497
v  1.8555 35.6178 -11.2497
v  -1.6218 35.3743 -6.4125
v  1.8555 34.2569 4.0968
v  -1.6218 34.2569 4.0968
v  1.8555 34.3309 -6.4125
v  -1.6218 33.9337 -11.7176
v  1.8555 33.9337 -11.7176
v  -1.6218 34.3309 -6.4125
v  1.6652 34.0544 3.9050
v  1.6652 34.2569 3.9081
v  -1.4316 34.2569 3.9081
v  -1.4316 34.0544 3.9050
v  1.6652 34.1284 -6.4125
v  1.6652 34.3309 -6.4125
v  -1.4316 33.5879 -11.5836
v  -1.4316 33.9208 -11.5651
v  1.6652 33.9208 -11.5651
v  1.6652 33.5879 -11.5836
v  -1.4316 34.1284 -6.4125
v  -1.4316 34.3309 -6.4125
# 42 vertices

vn -0.5767 -0.5813 0.5740
vn -0.7628 -0.6311 0.1409
vn 0.7628 -0.6311 0.1409
vn 0.5767 -0.5813 0.5740
vn -0.5884 0.7399 0.3261
vn 0.5871 0.7409 0.3260
vn 0.6510 0.7568 -0.0577
vn -0.6522 0.7558 -0.0576
vn 0.5768 0.5758 0.5795
vn -0.5768 0.5758 0.5795
vn 0.6868 0.7245 -0.0582
vn 0.5521 -0.6711 -0.4948
vn -0.5521 -0.6711 -0.4948
vn -0.5658 0.6261 -0.5364
vn 0.5658 0.6261 -0.5364
vn -0.6868 0.7245 -0.0582
vn 0.5445 0.6627 -0.5142
vn -0.5467 0.6611 -0.5139
vn 0.6408 0.2828 0.7137
vn -0.6407 0.2825 0.7140
vn 0.9988 0.0495 0.0025
vn -0.6964 0.2213 -0.6827
vn 0.6967 0.2226 -0.6820
vn -0.9988 0.0479 0.0024
vn 0.5779 -0.5789 0.5752
vn -0.5779 -0.5789 0.5752
vn 0.7241 -0.6884 0.0420
vn -0.5921 -0.5267 -0.6099
vn 0.5921 -0.5267 -0.6099
vn -0.7241 -0.6884 0.0420
vn 0.2955 0.9043 0.3082
vn 0.3074 -0.9047 0.2949
vn -0.3074 -0.9047 0.2949
vn -0.2955 0.9043 0.3082
vn 0.7303 0.6806 -0.0593
vn 0.6900 -0.7223 0.0470
vn -0.0992 0.9342 -0.3427
vn -0.4246 -0.8513 -0.3082
vn 0.4246 -0.8513 -0.3082
vn 0.0992 0.9342 -0.3427
vn -0.7303 0.6806 -0.0593
vn -0.6900 -0.7223 0.0470
# 42 vertex normals

vt 0.1808 0.0005 0.0000
vt 0.1808 0.2538 0.0000
vt 0.0971 0.2538 0.0000
vt 0.0971 0.0005 0.0000
vt 0.3072 0.4403 0.0000
vt 0.3533 0.4917 0.0000
vt 0.2128 0.6177 0.0000
vt 0.1668 0.5664 0.0000
vt 0.5645 0.6442 0.0000
vt 0.6434 0.6725 0.0000
vt 0.6158 0.7495 0.0000
vt 0.5369 0.7212 0.0000
vt 0.0112 0.5287 0.0000
vt 0.2287 0.3989 0.0000
vt 0.2715 0.4686 0.0000
vt 0.0541 0.5984 0.0000
vt 0.8144 0.5584 0.0000
vt 0.8982 0.5608 0.0000
vt 0.8942 0.6945 0.0000
vt 0.8105 0.6920 0.0000
vt 0.0059 0.7944 0.0000
vt 0.1696 0.8367 0.0000
vt 0.1841 0.9173 0.0000
vt 0.0524 0.9214 0.0000
vt 0.1808 0.4209 0.0000
vt 0.0971 0.4209 0.0000
vt 0.7658 0.6442 0.0000
vt 0.8080 0.7358 0.0000
vt 0.7453 0.7647 0.0000
vt 0.7032 0.6730 0.0000
vt 0.3186 0.2580 0.0000
vt 0.3704 0.3812 0.0000
vt 0.4205 0.7944 0.0000
vt 0.4331 0.8756 0.0000
vt 0.4478 0.4223 0.0000
vt 0.3828 0.4963 0.0000
vt 0.3277 0.4549 0.0000
vt 0.3809 0.3720 0.0000
vt 0.2628 0.6913 0.0000
vt 0.2698 0.7653 0.0000
vt 0.0826 0.7818 0.0000
vt 0.0107 0.7149 0.0000
vt 0.7565 0.6229 0.0000
vt 0.7241 0.6608 0.0000
vt 0.6656 0.6242 0.0000
vt 0.6855 0.5784 0.0000
vt 0.5524 0.8750 0.0000
vt 0.5417 0.9486 0.0000
vt 0.4457 0.9175 0.0000
vt 0.4355 0.8686 0.0000
vt 0.3796 0.6922 0.0000
vt 0.3666 0.7400 0.0000
vt 0.8034 0.9084 0.0000
vt 0.7288 0.9726 0.0000
vt 0.4752 0.3860 0.0000
vt 0.4082 0.3356 0.0000
vt 0.2585 0.6457 0.0000
vt 0.0059 0.6707 0.0000
vt 0.7959 0.5600 0.0000
vt 0.7249 0.5154 0.0000
vt 0.5590 0.8300 0.0000
vt 0.4350 0.7944 0.0000
vt 0.3853 0.6196 0.0000
vt 0.8100 0.8634 0.0000
vt 0.4795 0.3725 0.0000
vt 0.4742 0.3796 0.0000
vt 0.4146 0.3348 0.0000
vt 0.4199 0.3277 0.0000
vt 0.2571 0.6323 0.0000
vt 0.2578 0.6411 0.0000
vt 0.0099 0.6658 0.0000
vt 0.0089 0.6570 0.0000
vt 0.8895 0.6998 0.0000
vt 0.8890 0.7143 0.0000
vt 0.8144 0.7121 0.0000
vt 0.8149 0.6976 0.0000
vt 0.1846 0.9218 0.0000
vt 0.1862 0.9305 0.0000
vt 0.0614 0.9399 0.0000
vt 0.0579 0.9262 0.0000
vt 0.3805 0.6013 0.0000
vt 0.3809 0.6158 0.0000
vt 0.4292 0.8810 0.0000
vt 0.4306 0.8895 0.0000
vt 0.9514 0.9975 0.0000
vt 0.6981 0.9975 0.0000
vt 0.6981 0.9929 0.0000
vt 0.9468 0.9930 0.0000
vt 0.5691 0.9975 0.0000
vt 0.5726 0.9928 0.0000
vt 0.2667 0.2402 0.0000
vt 0.1829 0.2402 0.0000
vt 0.1875 0.2365 0.0000
vt 0.2621 0.2365 0.0000
vt 0.2687 0.2365 0.0000
vt 0.3525 0.2365 0.0000
vt 0.3479 0.2411 0.0000
vt 0.2733 0.2411 0.0000
vt 0.0756 0.9392 0.0000
vt 0.3289 0.9394 0.0000
vt 0.3289 0.9440 0.0000
vt 0.0802 0.9438 0.0000
vt 0.4609 0.9392 0.0000
vt 0.4557 0.9441 0.0000
# 104 texture coords

o Box003
g Box003
usemtl wire_115115115
s 2
f 1/1/1 2/2/2 3/3/3 4/4/4 
s 4
f 5/5/5 6/6/6 7/7/7 8/8/8 
s 8
f 1/9/1 4/10/4 9/11/9 10/12/10 
s 16
f 4/13/4 3/14/3 11/15/11 9/16/9 
s 32
f 12/17/12 13/18/13 14/19/14 15/20/15 
s 64
f 13/21/13 2/22/2 16/23/16 14/24/14 
s 2
f 2/2/2 13/25/13 12/26/12 3/3/3 
s 4
f 7/27/7 17/28/17 18/29/18 8/30/8 
s 16
f 3/14/3 12/31/12 15/32/15 11/15/11 
s 64
f 2/22/2 1/33/1 10/34/10 16/23/16 
s 8
f 19/35/19 6/36/6 5/37/5 20/38/20 
s 16
f 21/39/21 7/40/7 6/41/6 19/42/19 
s 32
f 22/43/22 18/44/18 17/45/17 23/46/23 
s 64
f 24/47/24 8/48/8 18/49/18 22/50/22 
s 16
f 23/51/23 17/52/17 7/40/7 21/39/21 
s 64
f 20/53/20 5/54/5 8/48/8 24/47/24 
s 8
f 25/55/25 19/35/19 20/38/20 26/56/26 
s 16
f 27/57/27 21/39/21 19/42/19 25/58/25 
s 32
f 28/59/28 22/43/22 23/46/23 29/60/29 
s 64
f 30/61/30 24/47/24 22/50/22 28/62/28 
s 16
f 29/63/29 23/51/23 21/39/21 27/57/27 
s 64
f 26/64/26 20/53/20 24/47/24 30/61/30 
s 8
f 31/65/31 32/66/32 33/67/33 34/68/34 
s 16
f 35/69/35 36/70/36 32/71/32 31/72/31 
s 32
f 37/73/37 38/74/38 39/75/39 40/76/40 
s 64
f 41/77/41 42/78/42 38/79/38 37/80/37 
s 16
f 40/81/40 39/82/39 36/70/36 35/69/35 
s 64
f 34/83/34 33/84/33 42/78/42 41/77/41 
s off
f 25/55/25 26/56/26 33/67/33 32/66/32 
f 26/85/26 30/86/30 42/87/42 33/88/33 
f 30/86/30 28/89/28 38/90/38 42/87/42 
f 28/91/28 29/92/29 39/93/39 38/94/38 
f 29/63/29 27/57/27 36/70/36 39/82/39 
f 27/57/27 25/58/25 32/71/32 36/70/36 
f 10/95/10 9/96/9 31/97/31 34/98/34 
f 9/99/9 11/100/11 35/101/35 31/102/31 
f 11/100/11 15/103/15 40/104/40 35/101/35 
f 15/20/15 14/19/14 37/73/37 40/76/40 
f 14/24/14 16/23/16 41/77/41 37/80/37 
f 16/23/16 10/34/10 34/83/34 41/77/41 
# 40 polygons

#
# object Cylinder011
#

v  0.4950 36.9221 0.4412
v  0.4058 36.9221 0.3185
v  0.4058 38.4614 0.3185
v  0.4950 38.4614 0.4412
v  0.2615 36.9221 0.3654
v  0.2615 38.4614 0.3654
v  0.2615 36.9221 0.5171
v  0.2615 38.4614 0.5171
v  0.4058 36.9221 0.5640
v  0.4058 38.4614 0.5640
v  1.0015 36.9221 0.4412
v  0.9123 36.9221 0.3185
v  0.9123 39.8232 0.3185
v  1.0015 39.8232 0.4412
v  0.7680 36.9221 0.3654
v  0.7680 39.8232 0.3654
v  0.7680 36.9221 0.5171
v  0.7680 39.8232 0.5171
v  0.9123 36.9221 0.5640
v  0.9123 39.8232 0.5640
# 20 vertices

vn 1.0000 0.0000 -0.0001
vn 0.3091 0.0000 -0.9510
vn 0.2483 0.5957 -0.7638
vn 0.8032 0.5957 -0.0001
vn -0.8091 0.0000 -0.5877
vn -0.6498 0.5957 -0.4720
vn -0.8091 0.0000 0.5877
vn -0.6498 0.5957 0.4720
vn 0.3090 0.0000 0.9511
vn 0.2482 0.5958 0.7638
vn 1.0000 0.0000 0.0001
vn 0.3089 0.0000 -0.9511
vn 0.2481 0.5957 -0.7639
vn 0.8032 0.5957 0.0001
vn -0.8090 0.0000 -0.5878
vn -0.6498 0.5957 -0.4721
vn 0.3091 0.0000 0.9510
vn 0.2483 0.5957 0.7638
# 18 vertex normals

vt 0.2677 0.1403 0.0403
vt 0.2699 0.1400 -0.0403
vt 0.2838 0.2208 0.0403
vt 0.2816 0.2212 -0.0403
vt 0.0112 0.5476 -0.4179
vt 0.0135 0.5476 0.4179
vt 0.0135 0.6297 0.4179
vt 0.0112 0.6297 -0.4179
vt 0.0157 0.5476 -0.4179
vt 0.0157 0.6297 -0.4179
vt 0.2633 0.1411 -0.0403
vt 0.2655 0.1407 -0.0403
vt 0.2794 0.2216 -0.0403
vt 0.2772 0.2220 -0.0403
vt 0.1836 0.6174 0.0000
vt 0.1858 0.6174 0.0000
vt 0.1865 0.6195 0.0933
vt 0.1847 0.6208 0.0000
vt 0.1829 0.6195 -0.0933
vt 0.2418 0.0653 0.0757
vt 0.2445 0.0649 -0.0757
vt 0.2721 0.2166 0.0757
vt 0.2694 0.2170 -0.0757
vt 0.2258 0.0166 -0.7854
vt 0.2285 0.0166 0.7854
vt 0.2285 0.1708 0.7854
vt 0.2258 0.1708 -0.7854
vt 0.2312 0.0166 -0.7854
vt 0.2312 0.1708 -0.7854
vt 0.2365 0.0663 -0.0757
vt 0.2392 0.0658 -0.0757
vt 0.2668 0.2175 -0.0757
vt 0.2641 0.2180 -0.0757
vt 0.1836 0.6120 0.0000
vt 0.1858 0.6120 0.0000
vt 0.1865 0.6141 0.0933
vt 0.1847 0.6154 0.0000
vt 0.1829 0.6141 -0.0933
# 38 texture coords

o Cylinder011
g Cylinder011
usemtl wire_115115115
s 8
f 43/105/43 44/106/44 45/107/45 46/108/46 
f 44/109/44 47/110/47 48/111/48 45/112/45 
f 47/110/47 49/113/49 50/114/50 48/111/48 
f 49/115/49 51/116/51 52/117/52 50/118/50 
f 51/116/51 43/105/43 46/108/46 52/117/52 
s 1
f 52/119/52 46/120/46 45/121/45 48/122/48 50/123/50 
s 8
f 53/124/53 54/125/54 55/126/55 56/127/56 
f 54/128/54 57/129/57 58/130/58 55/131/55 
f 57/129/57 59/132/49 60/133/50 58/130/58 
f 59/134/49 61/135/59 62/136/60 60/137/50 
f 61/135/59 53/124/53 56/127/56 62/136/60 
s 1
f 62/138/60 56/139/56 55/140/55 58/141/58 60/142/50 
# 12 polygons

#
# object Box007
#

v  3.4803 24.9543 1.3719
v  2.6162 26.1706 1.3719
v  2.6162 26.1706 -0.2297
v  3.4803 24.9543 -0.2297
v  3.4803 24.3294 1.3719
v  2.6162 24.3294 1.3719
v  2.6162 24.3294 -0.2297
v  3.4803 24.3294 -0.2297
v  -3.2736 24.9543 1.3719
v  -3.2736 24.9543 -0.2297
v  -2.4094 26.1706 -0.2297
v  -2.4094 26.1706 1.3719
v  -3.2736 24.3294 1.3719
v  -2.4094 24.3294 1.3719
v  -2.4094 24.3294 -0.2297
v  -3.2736 24.3294 -0.2297
v  -2.4893 34.4521 1.3246
v  -2.4893 34.4521 -0.2016
v  -1.6818 34.4521 -0.2016
v  -1.6818 34.4521 1.3246
v  -2.4893 23.2425 1.8501
v  -2.4893 31.5801 1.8501
v  -1.6818 31.5801 1.8501
v  -1.6818 23.2425 1.8501
v  -1.6818 31.5801 -0.7270
v  -1.6818 23.2425 -0.7270
v  -2.4893 31.5801 -0.7270
v  -2.4893 23.2425 -0.7270
v  1.8285 34.4521 1.3246
v  1.8285 34.4521 -0.2016
v  2.6360 34.4521 -0.2016
v  2.6360 34.4521 1.3246
v  1.8285 23.2425 1.8501
v  1.8285 31.5801 1.8501
v  2.6360 31.5801 1.8501
v  2.6360 23.2425 1.8501
v  2.6360 31.5801 -0.7270
v  2.6360 23.2425 -0.7270
v  1.8285 31.5801 -0.7270
v  1.8285 23.2425 -0.7270
v  2.4856 21.9233 4.9233
v  4.9420 21.9233 0.6688
v  2.4856 21.9233 -3.5857
v  -2.4271 21.9233 -3.5857
v  -4.8834 21.9233 0.6688
v  -2.4271 21.9233 4.9233
v  4.9420 24.4198 0.6688
v  2.4856 24.4198 -3.5857
v  -2.4271 24.4198 -3.5857
v  -4.8834 24.4198 0.6688
v  -2.4271 24.4198 4.9233
v  2.4856 24.4198 4.9233
# 52 vertices

vn 0.6759 0.4204 0.6053
vn 0.3608 0.7319 0.5781
vn 0.3608 0.7319 -0.5781
vn 0.6759 0.4204 -0.6053
vn 0.7071 0.0000 0.7071
vn 0.0000 0.0000 1.0000
vn 0.0000 0.0000 -1.0000
vn 0.7071 0.0000 -0.7071
vn -0.6759 0.4204 0.6053
vn -0.6759 0.4204 -0.6053
vn -0.3608 0.7319 -0.5781
vn -0.3608 0.7319 0.5781
vn -0.7071 0.0000 0.7071
vn -0.7071 0.0000 -0.7071
vn -0.5967 0.6527 0.4669
vn -0.5967 0.6527 -0.4669
vn 0.5967 0.6527 -0.4669
vn 0.5967 0.6527 0.4669
vn -0.7071 -0.0000 0.7071
vn -0.6721 0.1211 0.7305
vn 0.6721 0.1211 0.7305
vn 0.6721 0.1211 -0.7305
vn -0.6721 0.1211 -0.7305
vn -0.7071 -0.0000 -0.7071
vn 0.3206 -0.6253 0.7115
vn 0.8117 -0.5841 0.0000
vn 0.3206 -0.6253 -0.7115
vn -0.3206 -0.6253 -0.7115
vn -0.8117 -0.5841 0.0000
vn -0.3206 -0.6253 0.7115
vn 0.8117 0.5841 0.0000
vn 0.3206 0.6253 -0.7115
vn -0.3206 0.6253 -0.7115
vn -0.8117 0.5841 0.0000
vn -0.3206 0.6253 0.7115
vn 0.3206 0.6253 0.7115
# 36 vertex normals

vt 0.2365 0.0572 0.0000
vt 0.2532 0.0166 0.0000
vt 0.2973 0.0347 0.0000
vt 0.2806 0.0753 0.0000
vt 0.1400 0.6053 0.0000
vt 0.1738 0.5852 0.0000
vt 0.1889 0.6104 0.0000
vt 0.1451 0.6139 0.0000
vt 0.4178 0.4672 0.0000
vt 0.4517 0.4873 0.0000
vt 0.4466 0.4959 0.0000
vt 0.4028 0.4924 0.0000
vt 0.0917 0.6327 0.0000
vt 0.1316 0.6066 0.0000
vt 0.1370 0.6150 0.0000
vt 0.0971 0.6411 0.0000
vt 0.3938 0.2986 0.0000
vt 0.3497 0.3167 0.0000
vt 0.3331 0.2760 0.0000
vt 0.3772 0.2580 0.0000
vt 0.2934 0.6126 0.0000
vt 0.2848 0.6075 0.0000
vt 0.2883 0.5637 0.0000
vt 0.3135 0.5788 0.0000
vt 0.3943 0.2843 0.0000
vt 0.3813 0.2580 0.0000
vt 0.4253 0.2580 0.0000
vt 0.4297 0.2669 0.0000
vt 0.4541 0.4374 0.0000
vt 0.4457 0.4320 0.0000
vt 0.4718 0.3921 0.0000
vt 0.4801 0.3975 0.0000
vt 0.8600 0.7687 0.0000
vt 0.8637 0.7829 0.0000
vt 0.8511 0.7859 0.0000
vt 0.8474 0.7717 0.0000
vt 0.6548 0.4885 0.0000
vt 0.5390 0.5541 0.0000
vt 0.5208 0.5221 0.0000
vt 0.6366 0.4564 0.0000
vt 0.5352 0.7129 0.0000
vt 0.4066 0.7474 0.0000
vt 0.3867 0.6734 0.0000
vt 0.5153 0.6388 0.0000
vt 0.1720 0.5797 0.0000
vt 0.0562 0.6453 0.0000
vt 0.0380 0.6133 0.0000
vt 0.1539 0.5476 0.0000
vt 0.4601 0.5734 0.0000
vt 0.3315 0.6080 0.0000
vt 0.3116 0.5339 0.0000
vt 0.4402 0.4993 0.0000
vt 0.8900 0.7257 0.0000
vt 0.8212 0.7139 0.0000
vt 0.8212 0.8289 0.0000
vt 0.8900 0.8408 0.0000
vt 0.6240 0.5864 0.0000
vt 0.6277 0.6005 0.0000
vt 0.6151 0.6035 0.0000
vt 0.6114 0.5894 0.0000
vt 0.9766 0.9122 0.0000
vt 0.8608 0.9778 0.0000
vt 0.8426 0.9458 0.0000
vt 0.9585 0.8802 0.0000
vt 0.6693 0.4447 0.0000
vt 0.5407 0.4792 0.0000
vt 0.5208 0.4052 0.0000
vt 0.6494 0.3706 0.0000
vt 0.9069 0.9069 0.0000
vt 0.7911 0.9725 0.0000
vt 0.7729 0.9405 0.0000
vt 0.8887 0.8748 0.0000
vt 0.6425 0.3642 0.0000
vt 0.5139 0.3988 0.0000
vt 0.4940 0.3247 0.0000
vt 0.6225 0.2902 0.0000
vt 0.6539 0.5434 0.0000
vt 0.5852 0.5315 0.0000
vt 0.5852 0.6465 0.0000
vt 0.6539 0.6584 0.0000
vt 0.5805 0.0005 0.0000
vt 0.6880 0.1220 37.6492
vt 0.5805 0.2436 0.0000
vt 0.3655 0.2436 0.0000
vt 0.2580 0.1220 -37.6492
vt 0.3655 0.0005 0.0000
vt 0.7040 0.1553 0.0000
vt 0.6163 0.2727 0.0000
vt 0.0059 0.9951 12.9006
vt 0.0059 0.9553 -12.9006
vt 0.2298 0.9553 -12.9006
vt 0.2298 0.9951 -12.9006
vt 0.3988 0.9553 -12.9006
vt 0.3988 0.9951 12.9006
vt 0.5678 0.9553 -12.9006
vt 0.5678 0.9951 -12.9006
vt 0.2252 0.2244 -0.4915
vt 0.1853 0.2249 0.4915
vt 0.1829 0.0009 -0.4915
vt 0.2227 0.0005 0.4915
vt 0.8427 0.1067 0.0000
vt 0.8463 0.1432 0.0000
vt 0.9982 0.3474 0.0000
vt 0.9263 0.5560 0.0000
vt 0.7105 0.5101 0.0000
# 105 texture coords

o Box007
g Box007
usemtl wire_115115115
s 4
f 66/146/64 65/145/63 64/144/62 63/143/61 
s 8
f 63/150/61 64/149/62 68/148/66 67/147/65 
s 32
f 65/154/63 66/153/64 70/152/68 69/151/67 
s 64
f 66/158/64 63/157/61 67/156/65 70/155/68 
s 4
f 74/162/72 73/161/71 72/160/70 71/159/69 
s 8
f 76/166/66 74/165/72 71/164/69 75/163/73 
s 32
f 78/170/74 72/169/70 73/168/71 77/167/67 
s 64
f 75/174/73 71/173/69 72/172/70 78/171/74 
s 4
f 82/178/78 81/177/77 80/176/76 79/175/75 
s 8
f 86/182/65 85/181/81 84/180/80 83/179/79 
s 16
f 88/186/68 87/185/82 85/184/81 86/183/65 
s 32
f 90/190/84 89/189/83 87/188/82 88/187/68 
s 64
f 83/194/79 84/193/80 89/192/83 90/191/84 
s off
f 85/196/81 82/178/78 79/175/75 84/195/80 
f 87/197/82 81/177/77 82/178/78 85/196/81 
f 89/198/83 80/176/76 81/177/77 87/197/82 
f 84/195/80 79/175/75 80/176/76 89/198/83 
s 4
f 94/202/78 93/201/77 92/200/76 91/199/75 
s 8
f 98/206/65 97/205/81 96/204/80 95/203/79 
s 16
f 100/210/68 99/209/82 97/208/81 98/207/65 
s 32
f 102/214/84 101/213/83 99/212/82 100/211/68 
s 64
f 95/218/79 96/217/80 101/216/83 102/215/84 
s off
f 97/220/81 94/202/78 91/199/75 96/219/80 
f 99/221/82 93/201/77 94/202/78 97/220/81 
f 101/222/83 92/200/76 93/201/77 99/221/82 
f 96/219/80 91/199/75 92/200/76 101/222/83 
s 1
f 108/228/90 107/227/89 106/226/88 105/225/87 104/224/86 103/223/85 
s off
f 105/225/87 110/230/92 109/229/91 104/224/86 
f 106/234/88 111/233/93 110/232/92 105/231/87 
f 107/236/89 112/235/94 111/233/93 106/234/88 
f 108/238/90 113/237/95 112/235/94 107/236/89 
f 103/242/85 114/241/96 113/240/95 108/239/90 
f 104/224/86 109/229/91 114/244/96 103/243/85 
s 1
f 109/229/91 110/230/92 111/247/93 112/246/94 113/245/95 114/244/96 
# 34 polygons

#
# object Cylinder014
#

v  0.1845 35.2261 -10.0194
v  -0.1693 35.0225 -10.0194
v  -0.1698 34.6144 -10.0194
v  0.1834 34.4098 -10.0194
v  0.5371 34.6134 -10.0194
v  0.5377 35.0216 -10.0194
v  0.5371 34.6134 -22.8601
v  0.5377 35.0216 -22.8601
v  0.1834 34.4098 -22.8601
v  -0.1698 34.6144 -22.8601
v  -0.1693 35.0225 -22.8601
v  0.1845 35.2261 -22.8601
v  0.1843 35.1278 -18.9566
v  0.4525 34.9726 -18.9566
v  0.4521 34.6627 -18.9566
v  0.1835 34.5081 -18.9566
v  -0.0846 34.6634 -18.9566
v  -0.0842 34.9733 -18.9566
v  0.4521 34.6627 -22.8601
v  0.4525 34.9726 -22.8601
v  0.1835 34.5081 -22.8601
v  -0.0846 34.6634 -22.8601
v  -0.0842 34.9733 -22.8601
v  0.1843 35.1278 -22.8601
v  0.1845 33.1809 -10.0194
v  -0.1693 32.9773 -10.0194
v  -0.1698 32.5691 -10.0194
v  0.1834 32.3646 -10.0194
v  0.5371 32.5682 -10.0194
v  0.5377 32.9764 -10.0194
v  0.5371 32.5682 -19.1639
v  0.5377 32.9764 -19.1639
v  0.1834 32.3646 -19.1639
v  -0.1698 32.5691 -19.1639
v  -0.1693 32.9773 -19.1639
v  0.1845 33.1809 -19.1639
v  0.1843 33.0826 -16.3840
v  0.4525 32.9273 -16.3840
v  0.4521 32.6175 -16.3840
v  0.1835 32.4629 -16.3840
v  -0.0846 32.6182 -16.3840
v  -0.0842 32.9280 -16.3840
v  0.4521 32.6175 -19.1639
v  0.4525 32.9273 -19.1639
v  0.1835 32.4629 -19.1639
v  -0.0846 32.6182 -19.1639
v  -0.0842 32.9280 -19.1639
v  0.1843 33.0826 -19.1639
# 48 vertices

vn 0.0010 0.7924 0.6100
vn -0.6857 0.3971 0.6100
vn -0.6868 -0.3953 0.6100
vn -0.0010 -0.7924 0.6100
vn 0.6857 -0.3971 0.6100
vn 0.6868 0.3953 0.6100
vn 0.6857 -0.3971 -0.6100
vn 0.6868 0.3953 -0.6100
vn -0.0010 -0.7924 -0.6100
vn -0.6868 -0.3953 -0.6100
vn -0.6857 0.3971 -0.6100
vn 0.0010 0.7924 -0.6100
vn 0.6867 0.3953 -0.6100
vn -0.4714 0.2730 -0.8386
vn -0.4721 -0.2717 -0.8386
vn 0.0007 0.5447 -0.8386
vn 0.4720 0.2717 -0.8387
vn 0.4713 -0.2730 -0.8387
vn -0.0007 -0.5447 -0.8386
vn -0.6868 -0.3952 -0.6100
vn -0.4721 -0.2717 -0.8387
vn 0.4721 0.2717 -0.8386
vn 0.4714 -0.2730 -0.8386
vn -0.0007 -0.5447 -0.8387
# 24 vertex normals

vt 0.2352 0.7784 -0.0000
vt 0.1239 0.7784 -0.3790
vt 0.1981 0.7784 -0.3790
vt 0.3837 0.7784 -0.0000
vt 0.4950 0.7784 0.3790
vt 0.4208 0.7784 0.3790
vt 0.0770 0.0007 -0.1888
vt 0.0923 0.0010 0.1888
vt 0.0814 0.4249 -0.1888
vt 0.0734 0.4241 -0.1888
vt 0.0005 0.0010 0.1888
vt 0.0158 0.0007 -0.1888
vt 0.0249 0.4260 -0.1888
vt 0.0113 0.4263 -0.1888
vt 0.0311 0.0006 -0.1888
vt 0.0384 0.4256 -0.1888
vt 0.0464 0.0005 -0.1888
vt 0.0519 0.4253 -0.1888
vt 0.0617 0.0006 -0.1888
vt 0.0654 0.4249 -0.1888
vt 0.0734 0.4263 -0.1888
vt 0.0773 0.4257 -0.1888
vt 0.0734 0.4253 -0.1888
vt 0.0756 0.4280 -0.1888
vt 0.0754 0.4269 -0.1888
vt 0.0734 0.4276 -0.1888
vt 0.0734 0.4271 -0.1888
vt 0.0712 0.4280 -0.1888
vt 0.0714 0.4269 -0.1888
vt 0.0695 0.4257 -0.1888
vt 0.3961 0.7623 -0.0000
vt 0.2848 0.7623 -0.3790
vt 0.3590 0.7623 -0.3790
vt 0.5446 0.7623 -0.0000
vt 0.6559 0.7623 0.3790
vt 0.5817 0.7623 0.3790
vt 0.9841 0.5587 -0.1902
vt 0.9995 0.5591 0.1902
vt 0.9886 0.8628 -0.1902
vt 0.9805 0.8619 -0.1902
vt 0.9070 0.5591 0.1902
vt 0.9225 0.5587 -0.1902
vt 0.9315 0.8643 -0.1902
vt 0.9179 0.8648 -0.1902
vt 0.9379 0.5584 -0.1902
vt 0.9452 0.8638 -0.1902
vt 0.9533 0.5584 -0.1902
vt 0.9588 0.8633 -0.1902
vt 0.9688 0.5584 -0.1902
vt 0.9724 0.8628 -0.1902
vt 0.9804 0.8642 -0.1902
vt 0.9805 0.8642 -0.1902
vt 0.9805 0.8643 -0.1902
vt 0.9804 0.8643 -0.1902
vt 0.9844 0.8636 -0.1902
vt 0.9805 0.8631 -0.1902
vt 0.9827 0.8661 -0.1902
vt 0.9825 0.8650 -0.1902
vt 0.9805 0.8657 -0.1902
vt 0.9805 0.8652 -0.1902
vt 0.9782 0.8661 -0.1902
vt 0.9784 0.8650 -0.1902
vt 0.9766 0.8636 -0.1902
# 63 texture coords

o Cylinder014
g Cylinder014
usemtl wire_115115115
s 1
f 115/248/97 116/249/98 117/250/99 118/251/100 119/252/101 120/253/102 
s off
f 120/254/102 119/255/101 121/256/103 122/257/104 
f 119/258/101 118/259/100 123/260/105 121/261/103 
f 118/259/100 117/262/99 124/263/106 123/260/105 
f 117/262/99 116/264/98 125/265/107 124/263/106 
f 116/264/98 115/266/97 126/267/108 125/265/107 
f 115/266/97 120/254/102 122/257/104 126/267/108 
s 1
f 127/268/105 128/268/106 129/268/107 130/268/108 131/268/109 132/268/103 
s off
f 122/257/104 121/256/103 133/269/110 134/270/111 
f 121/256/103 123/271/105 135/272/112 133/269/110 
f 123/271/105 124/273/106 136/274/113 135/272/112 
f 124/273/106 125/275/107 137/276/114 136/274/113 
f 125/275/107 126/267/108 138/277/115 137/276/114 
f 126/267/108 122/257/104 134/270/111 138/277/115 
f 134/270/111 133/269/110 129/268/107 128/268/106 
f 133/269/110 135/272/112 130/268/108 129/268/107 
f 135/272/112 136/274/113 131/268/109 130/268/108 
f 136/274/113 137/276/114 132/268/103 131/268/109 
f 137/276/114 138/277/115 127/268/105 132/268/103 
f 138/277/115 134/270/111 128/268/106 127/268/105 
s 1
f 139/278/97 140/279/98 141/280/99 142/281/100 143/282/101 144/283/102 
s off
f 144/284/102 143/285/101 145/286/103 146/287/104 
f 143/288/101 142/289/100 147/290/105 145/291/103 
f 142/289/100 141/292/99 148/293/106 147/290/105 
f 141/292/99 140/294/98 149/295/107 148/293/106 
f 140/294/98 139/296/97 150/297/108 149/295/107 
f 139/296/97 144/284/102 146/287/104 150/297/108 
s 1
f 151/298/105 152/299/116 153/299/107 154/300/108 155/300/104 156/301/103 
s off
f 146/287/104 145/286/103 157/302/110 158/303/117 
f 145/286/103 147/304/105 159/305/112 157/302/110 
f 147/304/105 148/306/106 160/307/118 159/305/112 
f 148/306/106 149/308/107 161/309/119 160/307/118 
f 149/308/107 150/297/108 162/310/120 161/309/119 
f 150/297/108 146/287/104 158/303/117 162/310/120 
f 158/303/117 157/302/110 153/299/107 152/299/116 
f 157/302/110 159/305/112 154/300/108 153/299/107 
f 159/305/112 160/307/118 155/300/104 154/300/108 
f 160/307/118 161/309/119 156/301/103 155/300/104 
f 161/309/119 162/310/120 151/298/105 156/301/103 
f 162/310/120 158/303/117 152/299/116 151/298/105 
# 40 polygons

